0
SECTION
2
HEADER
9
$INSUNITS
70
4
9
$ACADVER
1
AC1014
9
$HANDSEED
5
FFFF
0
ENDSEC
0
SECTION
2
TABLES
0
TABLE
2
VPORT
5
8
100
AcDbSymbolTable
0
ENDTAB
0
TABLE
2
LTYPE
5
5
100
AcDbSymbolTable
0
LTYPE
5
14
100
AcDbSymbolTableRecord
100
AcDbLinetypeTableRecord
2
BYBLOCK
70
0
0
LTYPE
5
15
100
AcDbSymbolTableRecord
100
AcDbLinetypeTableRecord
2
BYLAYER
70
0
0
ENDTAB
0
TABLE
2
LAYER
5
2
100
AcDbSymbolTable
70
2
0
LAYER
5
50
100
AcDbSymbolTableRecord
100
AcDbLayerTableRecord
2
0
70
0
6
CONTINUOUS
0
ENDTAB
0
TABLE
2
STYLE
5
3
100
AcDbSymbolTable
70
1
0
STYLE
5
11
100
AcDbSymbolTableRecord
100
AcDbTextStyleTableRecord
2
STANDARD
70
0
0
ENDTAB
0
TABLE
2
VIEW
5
6
100
AcDbSymbolTable
70
0
0
ENDTAB
0
TABLE
2
UCS
5
7
100
AcDbSymbolTable
70
0
0
ENDTAB
0
TABLE
2
APPID
5
9
100
AcDbSymbolTable
70
2
0
APPID
5
12
100
AcDbSymbolTableRecord
100
AcDbRegAppTableRecord
2
ACAD
70
0
0
ENDTAB
0
TABLE
2
DIMSTYLE
5
A
100
AcDbSymbolTable
70
1
0
ENDTAB
0
TABLE
2
BLOCK_RECORD
5
1
100
AcDbSymbolTable
70
1
0
BLOCK_RECORD
5
1F
100
AcDbSymbolTableRecord
100
AcDbBlockTableRecord
2
*MODEL_SPACE
0
BLOCK_RECORD
5
1B
100
AcDbSymbolTableRecord
100
AcDbBlockTableRecord
2
*PAPER_SPACE
0
ENDTAB
0
ENDSEC
0
SECTION
2
BLOCKS
0
BLOCK
5
20
100
AcDbEntity
100
AcDbBlockBegin
2
*MODEL_SPACE
0
ENDBLK
5
21
100
AcDbEntity
100
AcDbBlockEnd
0
BLOCK
5
1C
100
AcDbEntity
100
AcDbBlockBegin
2
*PAPER_SPACE
0
ENDBLK
5
1D
100
AcDbEntity
100
AcDbBlockEnd
0
ENDSEC
0
SECTION
2
ENTITIES
0
LWPOLYLINE
5
100
100
AcDbEntity
8
0
100
AcDbPolyline
90
17
70
1
43
0.0
10
0
20
-115
10
0
20
-9.9999999999999982
42
-0.41421356237309553
10
10
20
1.1102230246251565e-15
10
102.5
20
3.8857805861880479e-15
42
-0.41421356237309659
10
104.5
20
-1.9999999999999996
10
104.5
20
-8.5000000000000018
42
0.41421356237309537
10
105.49999999999999
20
-9.5
10
110
20
-9.5000000000000018
10
114.50000000000001
20
-9.5000000000000018
42
0.41421356237309537
10
115.5
20
-8.5000000000000018
10
115.5
20
-1.9999999999999996
42
-0.41421356237309664
10
117.5
20
4.4408920985006262e-15
10
210
20
1.3322676295501878e-14
42
-0.41421356237309331
10
220
20
-10
10
220
20
-115
42
-0.41421356237309453
10
210
20
-125
10
9.9999999999999982
20
-125
42
-0.4142135623730952
0
CIRCLE
5
101
100
AcDbEntity
8
0
100
AcDbCircle
10
20
20
-30
30
0
40
12.5
210
0
220
0
230
1
0
CIRCLE
5
102
100
AcDbEntity
8
0
100
AcDbCircle
10
49
20
-30
30
0
40
12.5
210
0
220
0
230
1
0
CIRCLE
5
103
100
AcDbEntity
8
0
100
AcDbCircle
10
74
20
-44
30
0
40
12.5
210
0
220
0
230
1
0
CIRCLE
5
104
100
AcDbEntity
8
0
100
AcDbCircle
10
89
20
-97.000000000000014
30
0
40
12.5
210
0
220
0
230
1
0
CIRCLE
5
105
100
AcDbEntity
8
0
100
AcDbCircle
10
102
20
-62
30
0
40
12.5
210
0
220
0
230
1
0
CIRCLE
5
106
100
AcDbEntity
8
0
100
AcDbCircle
10
106.5
20
-30
30
0
40
12.5
210
0
220
0
230
1
0
CIRCLE
5
107
100
AcDbEntity
8
0
100
AcDbCircle
10
127.5
20
-50
30
0
40
12.5
210
0
220
0
230
1
0
CIRCLE
5
108
100
AcDbEntity
8
0
100
AcDbCircle
10
134
20
-19
30
0
40
12.5
210
0
220
0
230
1
0
CIRCLE
5
109
100
AcDbEntity
8
0
100
AcDbCircle
10
156
20
-48
30
0
40
12.5
210
0
220
0
230
1
0
CIRCLE
5
110
100
AcDbEntity
8
0
100
AcDbCircle
10
162.5
20
-19
30
0
40
12.5
210
0
220
0
230
1
0
CIRCLE
5
111
100
AcDbEntity
8
0
100
AcDbCircle
10
190
20
-26
30
0
40
12.5
210
0
220
0
230
1
0
CIRCLE
5
112
100
AcDbEntity
8
0
100
AcDbCircle
10
184
20
-55
30
0
40
12.5
210
0
220
0
230
1
0
LWPOLYLINE
5
113
100
AcDbEntity
8
0
100
AcDbPolyline
90
8
70
1
43
0.0
10
199.53854678415908
20
-73.979891927998722
10
112.53854678415904
20
-73.979891927998722
42
0.41421356237309609
10
107.53854678415905
20
-78.979891927998722
10
107.53854678415905
20
-114.97989192799875
42
0.41421356237309398
10
112.53854678415907
20
-119.97989192799871
10
199.538546784159
20
-119.97989192799871
42
0.41421356237309398
10
204.538546784159
20
-114.97989192799875
10
204.53854678415908
20
-78.979891927998722
42
0.41421356237309503
0
LWPOLYLINE
5
114
100
AcDbEntity
8
0
100
AcDbPolyline
90
4
70
1
43
0.0
10
27.758629713783765
20
-12.467975347500069
10
27.758629713783769
20
-4.4679753475000688
10
89.758629713783762
20
-4.4679753475000688
10
89.758629713783762
20
-12.467975347500069
0
CIRCLE
5
115
100
AcDbEntity
8
0
100
AcDbCircle
10
210
20
-114.99999999999999
30
0
40
3.2000000000000006
210
0
220
0
230
1
0
CIRCLE
5
116
100
AcDbEntity
8
0
100
AcDbCircle
10
209.99999999999997
20
-10.000000000000021
30
0
40
3.2000000000000006
210
0
220
0
230
1
0
CIRCLE
5
117
100
AcDbEntity
8
0
100
AcDbCircle
10
9.9999999999999893
20
-9.9999999999999893
30
0
40
3.2000000000000006
210
0
220
0
230
1
0
CIRCLE
5
118
100
AcDbEntity
8
0
100
AcDbCircle
10
9.9999999999999911
20
-115
30
0
40
3.2000000000000006
210
0
220
0
230
1
0
CIRCLE
5
119
100
AcDbEntity
8
0
100
AcDbCircle
10
100.00000000000001
20
-115
30
0
40
3.2000000000000006
210
0
220
0
230
1
0
CIRCLE
5
120
100
AcDbEntity
8
0
100
AcDbCircle
10
82.038717683545798
20
-61.836206221622902
30
0
40
3.2000000000000006
210
0
220
0
230
1
0
CIRCLE
5
121
100
AcDbEntity
8
0
100
AcDbCircle
10
141.00000210106376
20
-37.000000551342971
30
0
40
3.2000000000000006
210
0
220
0
230
1
0
CIRCLE
5
122
100
AcDbEntity
8
0
100
AcDbCircle
10
77.000001147389412
20
-20.000000298023224
30
0
40
3.2000000000000006
210
0
220
0
230
1
0
LWPOLYLINE
5
123
100
AcDbEntity
8
0
100
AcDbPolyline
90
8
70
1
43
0.0
10
15
20
-100
10
14.999999999999996
20
-65
42
-0.41421356237309531
10
20
20
-60
10
65
20
-60
42
-0.41421356237309503
10
70
20
-65
10
69.999999999999986
20
-100
42
-0.41421356237309453
10
65
20
-105
10
20
20
-105
42
-0.41421356237309348
0
LWPOLYLINE
5
124
100
AcDbEntity
8
0
100
AcDbPolyline
90
8
70
1
43
0.0
10
188.88360760802243
20
-4.1324298771853645
10
176.88360757592764
20
-4.1324298771853663
42
0.41421356237306933
10
175.88360757592764
20
-5.1324298771853636
10
175.88360757592764
20
-9.6324298771853663
42
0.41421356237306772
10
176.88360757592764
20
-10.632429877185359
10
188.88360775244908
20
-10.632429877185443
42
0.41421357177342161
10
189.88360775244911
20
-9.6324298450906394
10
189.88360760802249
20
-5.1324298450905541
42
0.41421355297275192
0
ENDSEC
0
SECTION
2
OBJECTS
0
DICTIONARY
5
C
100
AcDbDictionary
3
ACAD_GROUP
350
D
3
ACAD_MLINESTYLE
350
17
0
DICTIONARY
5
D
100
AcDbDictionary
0
DICTIONARY
5
1A
330
C
100
AcDbDictionary
0
DICTIONARY
5
17
100
AcDbDictionary
0
ENDSEC
0
EOF
