M48
; DRILL file {KiCad (5.1.4)-1} date 09/14/21 21:29:20
; FORMAT={-:-/ absolute / inch / decimal}
; #@! TF.CreationDate,2021-09-14T21:29:20-07:00
; #@! TF.GenerationSoftware,Kicad,Pcbnew,(5.1.4)-1
; #@! TF.FileFunction,Plated,1,2,PTH
FMAT,2
INCH
T1C0.0157
T2C0.0236
T3C0.0315
T4C0.0409
T5C0.0472
T6C0.0591
%
G90
G05
T1
X5.0438Y-2.9662
X5.0717Y-2.9383
X5.095Y-3.125
X5.0995Y-2.9105
X5.735Y-1.67
X5.7921Y-1.6985
X5.98Y-1.67
X6.035Y-3.4
X6.37Y-3.57
X6.56Y-5.215
X6.595Y-4.405
X6.775Y-3.6
X7.1593Y-5.1494
X7.17Y-3.61
X7.1896Y-5.1746
X7.415Y-5.258
X7.43Y-4.205
X7.56Y-5.26
X7.64Y-5.14
X7.73Y-5.11
X7.7448Y-4.6598
X7.835Y-4.545
X7.855Y-5.08
X7.885Y-4.495
X8.4Y-3.535
X8.53Y-1.755
X8.59Y-4.52
X8.8Y-4.2415
X9.01Y-4.56
X9.18Y-3.775
T3
X8.531Y-1.5425
X8.931Y-1.5425
X8.531Y-1.676
X8.931Y-1.676
T4
X4.9826Y-4.9519
X5.0826Y-4.9519
X5.4944Y-3.574
X5.5944Y-3.574
X4.3921Y-2.8653
X4.4921Y-2.8653
X6.7543Y-1.881
X6.8543Y-1.881
X8.7228Y-3.2984
X8.8228Y-3.2984
X3.4078Y-2.3141
X3.5078Y-2.3141
X7.8763Y-1.881
X7.9763Y-1.881
X6.4984Y-3.1015
X6.5984Y-3.1015
X8.959Y-2.1566
X9.059Y-2.1566
X2.2661Y-2.3141
X2.3661Y-2.3141
X5.6716Y-2.3141
X5.7716Y-2.3141
X7.6204Y-3.0228
X7.7204Y-3.0228
T5
X4.2452Y-3.1999
X4.4421Y-3.2826
X6.6074Y-2.2157
X6.8043Y-2.2984
X8.5759Y-3.633
X8.7728Y-3.7157
X3.261Y-2.6488
X3.4578Y-2.7314
X7.7295Y-2.2157
X7.9263Y-2.2984
X6.3515Y-3.4362
X6.5484Y-3.5188
X4.655Y-1.5628
X4.655Y-1.74
X4.9109Y-1.5628
X4.9109Y-1.74
X8.8122Y-2.4913
X9.009Y-2.574
X2.1193Y-2.6488
X2.3161Y-2.7314
X5.5248Y-2.6488
X5.7216Y-2.7314
X3.9Y-1.5628
X3.9Y-1.74
X4.1559Y-1.5628
X4.1559Y-1.74
X7.4736Y-3.3574
X7.6704Y-3.4401
X3.525Y-1.5628
X3.525Y-1.74
X3.7809Y-1.5628
X3.7809Y-1.74
X4.8358Y-5.2866
X5.0326Y-5.3692
X3.15Y-1.5628
X3.15Y-1.74
X3.4059Y-1.5628
X3.4059Y-1.74
X6.5307Y-4.5366
X6.6307Y-4.5366
X6.7307Y-4.5366
X6.8307Y-4.5366
X7.1274Y-4.4105
X7.2061Y-4.4105
X7.2849Y-4.4105
X7.3636Y-4.4105
X8.2398Y-4.3339
X8.2398Y-4.4339
X8.3398Y-4.3339
X8.3398Y-4.4339
X8.4398Y-4.3339
X8.4398Y-4.4339
X8.5398Y-4.3339
X8.5398Y-4.4339
X8.6398Y-4.3339
X8.6398Y-4.4339
X8.7398Y-4.3339
X8.7398Y-4.4339
X8.8398Y-4.3339
X8.8398Y-4.4338
X8.9398Y-4.3339
X8.9398Y-4.4343
X9.0398Y-4.3339
X9.0398Y-4.4339
X9.1394Y-4.3339
X9.1394Y-4.4339
X9.2965Y-4.7331
X9.2965Y-4.8331
X9.2965Y-4.9331
X9.2965Y-5.0331
X9.2965Y-5.229
X9.2965Y-5.3089
X9.2965Y-5.3876
X9.2965Y-5.4664
X9.2965Y-5.5451
X2.775Y-1.5628
X2.775Y-1.74
X3.0309Y-1.5628
X3.0309Y-1.74
X5.3476Y-3.9086
X5.5444Y-3.9913
X4.275Y-1.5628
X4.275Y-1.74
X4.5309Y-1.5628
X4.5309Y-1.74
T6
X6.4786Y-5.8381
X6.6164Y-5.8381
X6.7542Y-5.8381
X6.892Y-5.8381
X7.0298Y-5.8381
X7.1676Y-5.8381
X7.3053Y-5.8381
X7.4431Y-5.8381
X7.5809Y-5.8381
X7.7187Y-5.8381
X7.8565Y-5.8381
X7.9943Y-5.8381
X8.1321Y-5.8381
X8.2699Y-5.8381
X8.4077Y-5.8381
X8.5455Y-5.8381
X8.6833Y-5.8381
X8.8211Y-5.8381
X8.9589Y-5.8381
X9.1002Y-5.8381
T2
G00X5.6889Y-1.4202
M15
G01X5.6889Y-1.3966
M16
G05
G00X5.6889Y-1.5946
M15
G01X5.6889Y-1.5513
M16
G05
G00X6.0291Y-1.4202
M15
G01X6.0291Y-1.3966
M16
G05
G00X6.0291Y-1.5946
M15
G01X6.0291Y-1.5513
M16
G05
T0
M30
