M48
; DRILL file {KiCad (5.1.4)-1} date 09/14/21 21:29:20
; FORMAT={-:-/ absolute / inch / decimal}
; #@! TF.CreationDate,2021-09-14T21:29:20-07:00
; #@! TF.GenerationSoftware,Kicad,Pcbnew,(5.1.4)-1
; #@! TF.FileFunction,NonPlated,1,2,NPTH
FMAT,2
INCH
T1C0.0256
T2C0.0472
T3C0.0748
T4C0.1339
T5C0.2520
%
G90
G05
T1
X5.7452Y-1.5521
X5.9728Y-1.5521
T2
X5.75Y-3.5936
X4.6476Y-2.885
X7.0098Y-1.9007
X8.9783Y-3.3181
X3.6633Y-2.3338
X8.1318Y-1.9007
X6.7539Y-3.1212
X9.2145Y-2.1763
X2.5216Y-2.3338
X5.9271Y-2.3338
X7.8759Y-3.0425
X5.2381Y-4.9716
T3
X5.3279Y-3.759
X5.761Y-3.759
X4.2255Y-3.0503
X4.6586Y-3.0503
X6.5878Y-2.0661
X7.0208Y-2.0661
X8.5563Y-3.4834
X8.9893Y-3.4834
X3.2413Y-2.4992
X3.6744Y-2.4992
X7.7098Y-2.0661
X8.1429Y-2.0661
X6.3318Y-3.2866
X6.7649Y-3.2866
X8.7925Y-2.3417
X9.2255Y-2.3417
X2.0996Y-2.4992
X2.5326Y-2.4992
X5.5051Y-2.4992
X5.9381Y-2.4992
X7.4539Y-3.2078
X7.887Y-3.2078
X4.8161Y-5.137
X5.2492Y-5.137
T4
X8.7728Y-3.4834
X3.4578Y-2.4992
X7.9263Y-2.0661
X6.5484Y-3.2866
X9.009Y-2.3417
X2.3161Y-2.4992
X5.7216Y-2.4992
X7.6704Y-3.2078
X5.0326Y-5.137
X5.5444Y-3.759
X4.4421Y-3.0503
X6.8043Y-2.0661
T5
X1.9224Y-1.7118
X4.5602Y-2.1055
X1.9224Y-5.8456
X7.0799Y-2.7747
X5.4657Y-5.8456
X9.7964Y-1.7118
X4.7586Y-3.7526
X9.7964Y-5.8456
T0
M30
